<svg xmlns="http://www.w3.org/2000/svg" data-name="Layer 1" viewBox="0 0 700 550" id="man-working-from-home"><path d="M412.90229 261.98134l26.06006 10.9c-1.3501.37-2.67969.79-4.02 1.18l-3.96973 1.28c-2.65039.85-5.28027 1.78-7.90039 2.71-2.61963.95-5.23975 1.9-7.82959 2.93-2.55029 1-5.11035 2.02-7.62012 3.13-1.3999-8.98-3.5-18.57-6.25-20.8zM438.96235 272.88137v18.52c-4.81983 2.24-15.62012 5.78-29.25 9.84 0 0-.71-8.26-2.08985-17.11 2.6499-.74 5.27979-1.57 7.87988-2.43 2.64991-.85 5.28028-1.78 7.89991-2.71 2.62011-.95 5.24023-1.9 7.83008-2.93l3.87988-1.54C436.39252 273.97139 437.69233 273.46138 438.96235 272.88137zM251.95258 282.67134c.98975-.3 1.96-.63 2.91992-1.01995l-1.33008 5.28a43.2606 43.2606 0 00-4.10986-3.57C250.2724 283.15139 251.1225 282.93135 251.95258 282.67134z"></path><path d="M340.46235 302.89138c-13.91016-2.24-51.96-14.62-58.81006-19.83-5.04-3.84-10.81006-10.13-11.56006-25.13q-1.64941 10.245-3.38965 20.49l-.04.24006a10.0758 10.0758 0 012.71973-1.05 9.68939 9.68939 0 013.28027-.26 9.546 9.546 0 01-3.05029 1.23 9.83931 9.83931 0 01-2.98.28l-2.73 15.85c2.49023 1.69 4.96 3.39 7.3999 5.14l3.84033 2.74 3.81006 2.79c2.54 1.86 5.08984 3.7 7.58984 5.62 2.5 1.91 5.02979 3.77 7.50977 5.72l.01025.01a.36821.36821 0 01.10987.19c1.91992-.55 3.86035-1.06 5.79-1.59l6.16992-1.58c4.12011-1.04 8.25-2 12.37011-3 4.14991-.93 8.28028-1.9 12.43018-2.78 4.1499-.89 8.29981-1.76 12.48-2.52-4.08008 1.16-8.20019 2.22-12.31006 3.26-4.10986 1.05-8.25 2-12.37011 3.01-4.14014.92-8.27 1.89-12.41993 2.78l-6.23 1.31c-1.97021.38-3.93017.78-5.8999 1.14 0 .01.02.02.02.03.35986 4.03.69971 8.06.93994 12.1-.63037-3.94-1.16015-7.89-1.66992-11.85-2.53027-1.79-5-3.65-7.5-5.47-2.55029-1.84-5.05029-3.76-7.56006-5.65l-3.77-2.85-3.72021-2.9c-2.37012-1.83-4.71-3.71-7.02979-5.61l-.80029 4.66a.43252.43252 0 01-.5.35.18446.18446 0 01-.06983-.02l-10.83984-3.77a.48349.48349 0 01-.30029-.56l2.12011-8.34a44.60015 44.60015 0 01-5.31982-3.42c-1.33008.96-2.64014 1.93-3.98 2.88-1.46 1.01-2.90039 2.05-4.38037 3.05 1.36035-1.15 2.74023-2.27 4.12012-3.4 1.28027-1.05 2.58007-2.07 3.87988-3.1a.58345.58345 0 01.07031-.21c-.77-2.96-1.45019-5.94-2.16015-8.92-.75-3.08-1.44-6.18-2.10987-9.28-.70019-3.1-1.37012-6.2-1.99023-9.31994-.6499-3.11005-1.25-6.22-1.81006-9.35.86035 3.06 1.68017 6.13 2.43994 9.21.80029 3.07 1.54 6.16 2.26025 9.25.73975 3.09 1.46 6.18 2.12012 9.28.6499 2.94 1.31006 5.88 1.90967 8.83 1.07031-.25 2.14014-.48 3.22021-.67 1.04-.18 2.08008-.32 3.14014-.41l1.16992-4.59 4.75977-18.51.01025-.03v-.01a33.39958 33.39958 0 001.40967-4.97 10.555 10.555 0 00-.02978-5 4.56859 4.56859 0 00-1.31983-2.02 8.95116 8.95116 0 00-1.02-.74l-.56006-.37-.29-.24c-.04-.01-.06982-.04-.18017-.08a33.12053 33.12053 0 00-5.1001-.75c-6.96-.63-13.94971-1-20.92969-1.38 3.48975.05 6.98975.15 10.48975.28s6.99023.27 10.49023.54c.87012.07 1.75.15 2.62012.25a14.3998 14.3998 0 012.65967.46 1.29588 1.29588 0 01.40039.21l.21973.18005.54.34a8.92859 8.92859 0 011.10987.78 5.252 5.252 0 011.56006 2.3 11.40212 11.40212 0 01.1499 5.38 31.75559 31.75559 0 01-1.3999 5.1l-4.66016 18.51-4.61963 18.1 9.93994 3.52 3.81006-20.43q1.93506-10.23 3.94971-20.45a94.53324 94.53324 0 011.38037-19.6l-18.31006-1.92a8.95356 8.95356 0 01-5-2.11005 41.74313 41.74313 0 01-4.45019-.9c-.37989-.09-.75977-.19-1.14014-.31-.18994-.06-.37988-.12-.57959-.19a.25815.25815 0 00-.07031-.02h-.02979a1.15642 1.15642 0 00-.20019.04 11.59321 11.59321 0 00-2.04.86c-1.37989.67-2.73975 1.41-4.11963 2.11-1.37012.73-2.77051 1.42-4.19043 2.08a44.88264 44.88264 0 017.87012-5.09 12.56992 12.56992 0 012.28027-.89 2.13032 2.13032 0 01.38965-.04 1.5053 1.5053 0 01.46.1c.16015.08.34033.14.51025.21l1.08985.4c1.39013.49 2.78027 1.00995 4.16015 1.57995-1.45019-1.38-2.49023-3.61-1.87988-7.25l.92969-24.69-3.75-.77s-2.75977.62 2.68994-15.12l8.71-25.05s-34.21 4.22-35.44971 5.46c-1.24023 1.24 7.18994 84.8 18.8501 124.72 0 0 53.05957 37.94 56.27979 39.18006 1.56982.59 30.98-6.46 63.10986-14.93006C357.59223 315.73134 354.36225 305.13137 340.46235 302.89138zm-112.14014-117.37c-.81006-4.92-1.58984-9.84-2.27-14.78 1.08008 4.87 2.06006 9.76 3.02 14.65.96045 4.89 1.84033 9.8 2.76025 14.7.83985 4.91 1.73 9.82 2.52979 14.74l1.18994 7.38c.36035 2.47.75 4.93 1.08008 7.4-.54981-2.43-1.04-4.87-1.56983-7.31l-1.46-7.34c-.96-4.89-1.83008-9.8-2.75-14.7C230.01215 195.3514 229.1225 190.45137 228.32221 185.52138zM320.7724 127.58138c-1.81982 0-4.14013.99-6.45019 1.49s-7.59961-.5-8.09961-1.98c-.5-1.49-3.62012-13.77-4.13037-13.19-.5.57995-1.48975 1.61-1.48975 1.61s-.16992 14.96.15967 16.57c.34033 1.62 6.4502 9.72 15.54 8.89 9.09033-.83 10.42041-11.57 10.42041-11.57S322.58246 127.58138 320.7724 127.58138zm1.5 4.44a3.70878 3.70878 0 01-2.23.54 4.94354 4.94354 0 01-2.1499-.68 4.82535 4.82535 0 01-1.59033-1.49 11.32035 11.32035 0 003.80029 1.18 4.41711 4.41711 0 001.83008-.25 9.748 9.748 0 001.81006-.93A3.78845 3.78845 0 01322.2724 132.02138z"></path><path d="M300.60181 115.51583s8.26511-7.7692 7.6039-17.35673c0 0 2.14893-1.98363 5.62027 1.32242 0 0 2.97544.82651 6.44679-2.81014s5.28967 1.653 5.28967 1.653 1.81832 5.62028 2.31423 4.13256 1.32242-8.59572-6.11618-10.90995a50.48272 50.48272 0 00-17.85264-1.98362c-1.98362.3306-6.11618 3.63664-6.11618 8.2651s-1.98362 10.414-1.81832 12.23237S300.60181 115.51583 300.60181 115.51583zM308.0405 113.53219a11.35338 11.35338 0 015.03393-.70538 10.02359 10.02359 0 012.52.54956 6.93122 6.93122 0 012.19873 1.31293 15.27986 15.27986 0 00-2.3562-.79908 17.33607 17.33607 0 00-2.4209-.3775A34.522 34.522 0 00308.0405 113.53219zM322.091 113.90225a6.62228 6.62228 0 012.38964-1.6673 4.64772 4.64772 0 012.90015-.35577 27.50538 27.50538 0 00-2.63379.99048C323.88522 113.22372 323.03635 113.60885 322.091 113.90225zM314.32189 117.04487a1.03375 1.03375 0 000-2.06627 1.03375 1.03375 0 000 2.06627zM324.90123 116.38366a1.03375 1.03375 0 000-2.06627 1.03375 1.03375 0 000 2.06627z"></path><path d="M295.97336 110.06088a2.61122 2.61122 0 00-1.50659 1.68579 4.17436 4.17436 0 00.0039 2.27075 41.87582 41.87582 0 001.69922 4.46045 30.43353 30.43353 0 011.37158 4.6759 3.55676 3.55676 0 001.05518 1.9552 2.76617 2.76617 0 002.17041.65558 2.79007 2.79007 0 01-2.38281-.393 3.93933 3.93933 0 01-1.36353-2.12012 38.36633 38.36633 0 00-1.49487-4.53143c-.27539-.75116-.55664-1.501-.85669-2.24427a10.57049 10.57049 0 01-.71655-2.35949 4.54227 4.54227 0 01.19946-2.48676A2.6484 2.6484 0 01295.97336 110.06088zM322.9177 121.30142a4.4627 4.4627 0 01-.03418 3.23889 2.4345 2.4345 0 01-1.19751 1.26575 2.28583 2.28583 0 01-1.66114.01428 3.6297 3.6297 0 001.40528-.48694 2.50862 2.50862 0 00.82373-1.07111A12.09961 12.09961 0 00322.9177 121.30142zM327.87668 102.45694a57.05606 57.05606 0 00-.01367 6.8164 31.13456 31.13456 0 00.38867 3.359c.20093 1.09076.51855 2.20819.71 3.34766a19.41666 19.41666 0 01-.074 6.90747 30.50142 30.50142 0 01-2.16822 6.51373 45.86344 45.86344 0 001.646-6.60345 20.17033 20.17033 0 00-.08252-6.70459c-.16553-1.11365-.45532-2.2002-.648-3.35523a22.42558 22.42558 0 01-.29883-3.44208A35.10423 35.10423 0 01327.87668 102.45694zM300.76706 132.08279a7.35579 7.35579 0 01-1.42627 3.648 5.78158 5.78158 0 01-1.47 1.37543 3.74773 3.74773 0 01-1.90723.56012 7.05331 7.05331 0 001.59156-.99506 9.334 9.334 0 001.23584-1.35461 15.975 15.975 0 001.03-1.55866C300.135 133.21212 300.45871 132.66092 300.76706 132.08279z"></path><path d="M300.11862,133.84927a81.36275,81.36275,0,0,0-14.68213,4.45831,28.22079,28.22079,0,0,1-7.63842,1.62366,67.84837,67.84837,0,0,0-7.56324.86908,5.5276,5.5276,0,0,0-1.60571.62488,11.13054,11.13054,0,0,1-1.80713.904,9.72664,9.72664,0,0,0-3.105,1.87427,22.81261,22.81261,0,0,0-4.21875,6.14734c-.60083,1.118-1.08032,2.30291-1.60815,3.46356-.4773,1.184-.957,2.36981-1.40479,3.56842-.42236,1.20843-.87036,2.40906-1.2727,3.626l-1.14746,3.67163-.00269.00891-.00488.014q-3.58631,8.97264-6.51782,18.19459c-.968,3.071-1.88257,6.15991-2.66358,9.27307-.38525,1.55682-.74853,3.11877-1.02051,4.68286a21.04223,21.04223,0,0,0-.28466,2.33374,7.32183,7.32183,0,0,0,.01757,1.11242,1.43717,1.43717,0,0,0,.22535.72931l-.28418-.1455c5.67993,1.11645,11.364,2.22973,17.05566,3.28064l8.53076,1.59112,4.269.721a42.132,42.132,0,0,0,4.18531.51276l.41479.00433c.001-.02264-.01.00232.01514-.01331a.47838.47838,0,0,1,.09424-.07428,3.13358,3.13358,0,0,0,.46972-.72918,12.77111,12.77111,0,0,0,.71924-1.92127,38.35914,38.35914,0,0,0,.91992-4.168c.48169-2.82715.73829-5.69983.9375-8.57422q.27137-4.31542.17627-8.65173c-.042-2.88794-.21362-5.77685-.53735-8.65387a.069.069,0,0,1,.13647-.01947c.48438,2.85944.81861,5.7475,1.02271,8.647q.267,4.35123.158,8.72095a76.02361,76.02361,0,0,1-.7168,8.71625,39.48393,39.48393,0,0,1-.85156,4.33368,13.97258,13.97258,0,0,1-.75513,2.1593,4.32827,4.32827,0,0,1-.69482,1.09442c-.10181.09412-.21265.18591-.324.272a1.99454,1.99454,0,0,1-.47754.20917c-.23461.023-.44506.02228-.66967.02918a40.62666,40.62666,0,0,1-4.43653-.50659l-4.30175-.70417c-2.85743-.50567-5.7129-1.01172-8.55689-1.57293q-8.52869-1.702-17.02759-3.52448l-.04736-.01025a.45024.45024,0,0,1-.23706-.1355,2.342,2.342,0,0,1-.58179-1.49927,8.4784,8.4784,0,0,1,.00684-1.30279,22.13019,22.13019,0,0,1,.356-2.45673c.31446-1.60651.72144-3.17822,1.17237-4.73444.89917-3.11248,1.92578-6.17535,2.98364-9.22522,1.07593-3.04358,2.15869-6.08227,3.273-9.10943l3.37451-9.07056-.00757.02258a100.02243,100.02243,0,0,1,5.0044-14.63586,21.47634,21.47634,0,0,1,4.33008-6.57324,10.96453,10.96453,0,0,1,3.42553-2.1344,12.39814,12.39814,0,0,0,1.64014-.80591,6.6625,6.6625,0,0,1,1.97388-.75128,67.4091,67.4091,0,0,1,7.74536-.78784c1.26929-.11151,2.5332-.24689,3.77466-.47443a20.91679,20.91679,0,0,0,3.65673-.90631,67.07506,67.07506,0,0,1,14.96875-3.75806.06891.06891,0,0,1,.07789.05847A.07166.07166,0,0,1,300.11862,133.84927Z"></path><path d="M316.33566,148.17947a6.59312,6.59312,0,0,0-.085,1.82532c.03662.61676.07666,1.23266.13526,1.84833l.37744,3.68994c.27124,2.45868.59424,4.912.89477,7.36779l.47828,3.68036a5.277,5.277,0,0,1-.554,3.80963,2.65651,2.65651,0,0,1-3.7373.43567,2.54914,2.54914,0,0,1-.968-1.77893l-.19946-1.84454c-.27662-2.458-.57081-4.915-.94581-7.3584a34.97476,34.97476,0,0,0-.72924-3.62475,4.59352,4.59352,0,0,0-.30909-.84467.42426.42426,0,0,0-.28833-.24408l-.4248-.18384c-.56738-.24481-1.1416-.47485-1.71851-.69806-2.30493-.89807-4.62646-1.75683-6.96948-2.54394-1.16186-.36774-2.36865-.893-3.48511-.52515a2.84062,2.84062,0,0,0-1.60034,2.7981.245.245,0,0,1-.24878.241.24837.24837,0,0,1-.209-.12377,26.94527,26.94527,0,0,0-2.18482-3.23224,14.595,14.595,0,0,0-2.71045-2.73212,5.67694,5.67694,0,0,0-1.64965-.85974,9.19155,9.19155,0,0,1-1.86792-.82831,8.504,8.504,0,0,1-2.96167-2.8291.2169.2169,0,0,1-.02344-.05176l-.00635-.02142a2.74189,2.74189,0,0,1,.25049-2.0448,5.58806,5.58806,0,0,1,1.2356-1.51941,15.2468,15.2468,0,0,1,3.13745-2.07318,38.18774,38.18774,0,0,1,6.90869-2.69629.31207.31207,0,0,1,.3518.46423l-.009.01465a5.53853,5.53853,0,0,0-.72705,2.10162,8.53856,8.53856,0,0,0-.092,1.14124c.0332.38159.03027.76843.09814,1.1477a11.20121,11.20121,0,0,0,1.69239,4.31257,22.3851,22.3851,0,0,0,1.36059,1.92114c.53223.58,1.0315,1.19244,1.58692,1.75329.57373.54206,1.11865,1.11866,1.71826,1.63508l1.82348,1.52618a.03441.03441,0,0,1,.00733.04816.03625.03625,0,0,1-.04858.007l-1.89356-1.44982c-.62476-.49244-1.19775-1.04786-1.80078-1.57019-.58984-.53669-1.10571-1.15094-1.65991-1.72675a22.68425,22.68425,0,0,1-1.43433-1.92816,11.65494,11.65494,0,0,1-1.85937-4.44745c-.08057-.39966-.08936-.8125-.13208-1.21936a9.06707,9.06707,0,0,1,.06982-1.231,6.04355,6.04355,0,0,1,.77808-2.37836l.34253.47876a43.74084,43.74084,0,0,0-6.75367,2.72229,14.569,14.569,0,0,0-2.98047,1.98127,2.993,2.993,0,0,0-1.27758,2.8316l-.02979-.07281a7.8703,7.8703,0,0,0,2.67383,2.58734,8.53026,8.53026,0,0,0,1.72461.78595,6.34978,6.34978,0,0,1,1.82544.97186,14.14382,14.14382,0,0,1,2.78735,2.89679,27.42214,27.42214,0,0,1,2.15821,3.35217l-.45752.11731a4.43985,4.43985,0,0,1,.47851-1.89294,2.5044,2.5044,0,0,1,1.48267-1.29236c1.33691-.38635,2.5769.21966,3.72094.58948,2.33814.82641,4.6482,1.72229,6.94214,2.65765l1.72.704.42945.17993a.66705.66705,0,0,1,.39795.33569,4.77269,4.77269,0,0,1,.34008.89075c.344,1.20172.5586,2.4234.78833,3.642.44873,2.43915.81592,4.89038,1.16187,7.34405l.25244,1.84131a1.996,1.996,0,0,0,.76782,1.38636,2.05929,2.05929,0,0,0,2.884-.341,3.65092,3.65092,0,0,0,.53393-1.594,6.40388,6.40388,0,0,0-.063-1.77686l-.4375-3.68976c-.29126-2.46-.52392-4.927-.73291-7.39624-.10644-1.23443-.19311-2.47113-.24145-3.71069-.03-.61914-.04151-1.24-.04981-1.86023a6.50627,6.50627,0,0,1,.17969-1.862.03363.03363,0,0,1,.06421.02Z"></path><path d="M319.4343 140.20132a15.33921 15.33921 0 011.27832 2.16516c.1831.37988.31567.78455.47632 1.17853a7.65237 7.65237 0 01.28979 1.25207 5.19364 5.19364 0 01-.20874 2.60077 3.8608 3.8608 0 01-1.74512 2.00916.26985.26985 0 01-.36548-.10993.26585.26585 0 01-.03051-.09741l-.001-.00946a15.006 15.006 0 00-.761-3.52105 4.33339 4.33339 0 00-.9143-1.51435 1.339 1.339 0 00-.72925-.37366 1.02052 1.02052 0 00-.687.39643 9.70213 9.70213 0 00-1.46094 3.26233c-.34863 1.15753-.64087 2.34137-.89551 3.51819l.00489-.11249.31176 2.14715a.35947.35947 0 01-.70727.12677l-.00147-.008a19.52021 19.52021 0 01-.3291-3.06207c-.05469-1.01911-.0293-2.036.01733-3.04938a49.51224 49.51224 0 01.62964-6.04077.03478.03478 0 01.0398-.02851.03534.03534 0 01.02881.03577q-.09924 3.02965-.09839 6.0448a35.85919 35.85919 0 00.4165 5.95575l-.709.11877-.25-2.15521-.00122-.01111a.29422.29422 0 01.0061-.10174 31.1922 31.1922 0 011.07031-3.53565 10.9224 10.9224 0 011.74585-3.27459 1.24056 1.24056 0 01.87354-.45313 1.57329 1.57329 0 01.86719.4469 4.55048 4.55048 0 011.0205 1.56366 15.78876 15.78876 0 011.06617 3.5542l-.39673-.21668a3.53935 3.53935 0 001.41528-1.72442 4.63319 4.63319 0 00.25024-2.31494c-.0205-.39893-.1455-.78943-.20556-1.18958-.125-.38641-.22119-.78491-.37061-1.16669-.16455-.3753-.29223-.76922-.46655-1.144l-.53247-1.12579a.0345.0345 0 01.01416-.04675A.03615.03615 0 01319.4343 140.20132zM314.44587 156.63475a1.03376 1.03376 0 000-2.06628 1.03376 1.03376 0 000 2.06628zM315.18973 162.33767a1.03376 1.03376 0 000-2.06628 1.03376 1.03376 0 000 2.06628zM315.80961 167.79264a1.03375 1.03375 0 000-2.06627 1.03375 1.03375 0 000 2.06627zM322.39792 138.26309c4.13013.10278 8.25464.37677 12.36865.7998 2.0586.19934 4.10864.48792 6.15283.83576a24.71967 24.71967 0 016.05445 1.64789 3.58264 3.58264 0 01.70971.46423 6.90061 6.90061 0 01.56763.57745c.34155.36933.71338.72266 1.08277 1.08679a15.75219 15.75219 0 012.05786 2.38544 19.08093 19.08093 0 012.5415 5.71955 63.62457 63.62457 0 011.92065 12.252 80.98334 80.98334 0 00-2.42822-12.1 20.02546 20.02546 0 00-2.54785-5.51245 15.11046 15.11046 0 00-2.00366-2.27337c-.3689-.35669-.74976-.711-1.113-1.09534a3.35813 3.35813 0 00-1.10669-.895 24.33621 24.33621 0 00-5.8457-1.64142c-2.02051-.37494-4.0625-.64715-6.10376-.92773C330.6174 139.05575 326.50974 138.64932 322.39792 138.26309zM265.72312 147.00119a8.938 8.938 0 015.64794.65277 11.03145 11.03145 0 014.37037 3.77466 16.69711 16.69711 0 011.42529 2.52465 26.94074 26.94074 0 01.99512 2.70465c.20727.93665.46337 1.86005.627 2.79926.10791.95038.23828 1.8938.32373 2.83917-.24023-.92413-.43579-1.8501-.65381-2.76916-.22876-.91559-.53857-1.80847-.80176-2.70929-.35229-.86872-.66357-1.75507-1.0581-2.59931a16.307 16.307 0 00-1.42017-2.39422 11.0374 11.0374 0 00-4.03906-3.6966A10.05994 10.05994 0 00265.72312 147.00119zM290.18771 190.563c.47486 1.26428.9751 2.5147 1.55689 3.7293.55029 1.22724 1.1543 2.42853 1.79443 3.60859a51.942 51.942 0 004.33033 6.76434 38.73515 38.73515 0 005.406 5.91223l1.52857 1.3042c.52343.41717 1.08886.77875 1.63061 1.17456l.81567.59338c.28248.18079.57789.34107.8667.51294l1.7417 1.03046a28.36438 28.36438 0 01-6.92749-4.21295 35.81338 35.81338 0 01-5.61059-5.90027 46.3602 46.3602 0 01-4.25025-6.93707A40.32184 40.32184 0 01290.18771 190.563zM247.15378 202.24148c-.03 4.11939-.12085 8.23657-.188 12.35456-.05566 4.11846-.19507 8.23376-.28906 12.35076l-.00269.03492-.00586.038a8.99157 8.99157 0 00.60669 4.861 6.32019 6.32019 0 003.44532 3.22962c.39135.12683.77441.27392 1.16992.3891l1.22705.23748c.84936.12507 1.72607.217 2.59253.31189q2.60778.27714 5.22607.49366c6.97876.58648 13.98.88739 20.97754 1.04406a187.17312 187.17312 0 0020.96143-.69293c6.92431-.66858 13.95776-1.72961 20.24878-4.74255a.27835.27835 0 01.355.103 5.31917 5.31917 0 001.99389 1.83258 6.347 6.347 0 002.67749.72729 9.944 9.944 0 002.81617-.29706c.45654-.13415.91406-.27386 1.36816-.42413l1.32812-.55115-1.29858.62506c-.44678.176-.8999.34223-1.355.50354a9.53947 9.53947 0 01-2.86938.43555 6.19553 6.19553 0 01-5.12134-2.5907l.35449.103a40.32642 40.32642 0 01-9.95142 3.61792 92.27046 92.27046 0 01-10.43017 1.77307 178.78187 178.78187 0 01-21.096.90155c-7.03833-.04486-14.06372-.49164-21.06909-1.1167q-2.62757-.23785-5.25073-.53986c-.87671-.10351-1.74537-.20135-2.63013-.33868l-1.35474-.27466c-.44458-.13165-.88257-.301-1.32251-.45233a7.3452 7.3452 0 01-3.95508-3.88415 9.93037 9.93037 0 01-.54614-5.46473l-.00854.07251c.218-4.1123.39087-8.22632.64746-12.33716C246.65012 210.46353 246.87155 206.35135 247.15378 202.24148z"></path><path d="M272.66818,207.07779c.11451,2.26428.1792,4.5285.25782,6.79272l-.15528-.23639a81.35845,81.35845,0,0,0,24.78736,4.72925,58.08351,58.08351,0,0,0,12.54419-.98273l3.07788-.66589c1.0166-.25788,2.00244-.62311,3.00659-.929l1.50439-.47039c.49024-.1861.96631-.40815,1.45093-.61048l2.90088-1.24286-.24609.37213a4.55589,4.55589,0,0,1,.78906-1.90722,5.73961,5.73961,0,0,1,1.38647-1.41828,8.4576,8.4576,0,0,1,3.55054-1.4505,18.10033,18.10033,0,0,1,1.87744-.22778c.62769.00012,1.25415-.05414,1.87744-.00806.62256.05133,1.24756.051,1.86328.146l1.84351.2738-1.85645-.104c-.61718-.031-1.23584-.00238-1.85107-.00714-.61621-.00372-1.22656.09247-1.83691.13318a17.61887,17.61887,0,0,0-1.7937.34277,8.654,8.654,0,0,0-3.20582,1.50885,4.49622,4.49622,0,0,0-1.72485,2.791l-.00391.03082a.45492.45492,0,0,1-.24218.34161,45.939,45.939,0,0,1-12.10987,4.38806,54.44585,54.44585,0,0,1-12.84106,1.04364,69.3495,69.3495,0,0,1-12.7478-1.65844c-2.08618-.48835-4.15576-1.04-6.19312-1.69379a51.48971,51.48971,0,0,1-6.012-2.25153l-.012-.00537a.24529.24529,0,0,1-.14356-.23132C272.48923,211.60629,272.55368,209.34207,272.66818,207.07779Z"></path><path d="M252.66428 219.08682a13.26485 13.26485 0 014.043-3.66138 18.59581 18.59581 0 015.10083-2.07342 22.57365 22.57365 0 012.73266-.38147 16.89476 16.89476 0 012.74976-.04419c.91626.02014 1.81909.205 2.72388.30261.89257.19177 1.77856.40887 2.6538.64166-.90893-.08026-1.7998-.22973-2.69775-.30694-.90161-.0282-1.7959-.15241-2.69336-.10767a24.12971 24.12971 0 00-5.31567.56659 20.09436 20.09436 0 00-4.99219 1.86047A16.88334 16.88334 0 00252.66428 219.08682zM322.25632 213.87063a11.64554 11.64554 0 00.97168 1.71948 4.90764 4.90764 0 001.33008 1.35212 2.71484 2.71484 0 00.40844.19873 1.37842 1.37842 0 01.50879.33349 1.259 1.259 0 01.19092 1.18036 5.00756 5.00756 0 01-1.07422 1.81189l-.00366.00385-.01978.01916a4.32252 4.32252 0 00-1.12841 1.75824 2.232 2.232 0 00.24072 1.90772c.334.54327 1.06714 1.07263 1.34814 1.90643a1.59472 1.59472 0 01-.0686 1.34228 2.02785 2.02785 0 01-1.01025.8274l.09228-.0633a5.57763 5.57763 0 00-1.21631 1.99878 2.54729 2.54729 0 00-.113 1.15625 2.40348 2.40348 0 00.53515 1.061 2.24012 2.24012 0 01-.69653-1.02314 2.78385 2.78385 0 01-.02-1.27032 4.199 4.199 0 01.447-1.18872 6.56281 6.56281 0 01.70215-1.06274.17671.17671 0 01.05908-.04718l.03345-.01636a1.51889 1.51889 0 00.68725-.641 1.05811 1.05811 0 00.002-.86652c-.22412-.64374-.82959-1.043-1.33277-1.75885a2.856 2.856 0 01-.46435-1.19354 2.92642 2.92642 0 01.13525-1.2702 4.93531 4.93531 0 011.35864-2.02045l-.02319.0227a4.9136 4.9136 0 00.99317-1.54974.75185.75185 0 00-.03174-.71021.92056.92056 0 00-.30323-.22393 3.19827 3.19827 0 01-.46679-.2674 4.50563 4.50563 0 01-1.312-1.57483A8.98588 8.98588 0 01322.25632 213.87063zM334.57147 214.56631c-.02069.42-.04137.83337-.062 1.24652-.83337-.00672-1.67364-.0412-2.50718-.13082a17.19826 17.19826 0 01-2.90637-.489 17.19729 17.19729 0 012.90637-.489C332.85646 214.61457 333.71741 214.58009 334.57147 214.56631zM334.351 219.20164c-.02758.42022-.04137.83337-.062 1.2398-.76443-.01379-1.52213-.04826-2.28673-.13082a17.19879 17.19879 0 01-2.90637-.48916 17.21434 17.21434 0 012.90637-.489C332.78752 219.2499 333.56574 219.21543 334.351 219.20164zM334.14436 223.66479c-.01379.42021-.03447.83337-.04826 1.2398-.69549-.02069-1.398-.05516-2.09386-.13083a17.19679 17.19679 0 01-2.90637-.48916 17.21431 17.21431 0 012.90637-.489C332.71858 223.71977 333.43491 223.68547 334.14436 223.66479zM332.00224 229.1266c.64756-.069 1.295-.10325 1.93546-.12393-.02052.42022-.03431.82648-.0481 1.21912-.62688-.01379-1.26048-.04826-1.88736-.11721a17.18024 17.18024 0 01-2.90637-.489A17.2133 17.2133 0 01332.00224 229.1266zM310.772 239.37831s-12.40917-12.26456-17.04206-4.31114-1.448 13.7876 1.99416 17.72436c4.19351 4.79605 4.40429 6.23247 5.64852 7.653s15.29 18.5923 32.79636 17.62754c10.21205-.56277 10.03813-6.00489 8.12028-10.44228a18.55312 18.55312 0 00-6.47-7.78006C330.227 255.94133 317.73 246.88988 310.772 239.37831z"></path><path d="M306.53952 235.87387c2.66846.12585 5.32984.30542 7.99146.47918l7.98.54145c2.65722.21081 5.31762.3648 7.9768.5061 1.32935.08228 2.65992.13055 3.98975.15216.66333-.001 1.33276.04706 1.9939-.00116l.99633-.04748.98584-.15528a31.45362 31.45362 0 01-7.98315.5813c-2.67383-.032-5.34082-.19195-8.00635-.3493-2.66235-.20856-5.32373-.41754-7.97827-.70233C311.83127 236.59475 309.17966 236.28244 306.53952 235.87387zM333.09641 258.26645a.345.345 0 01-.17578-.64161c.53906-.31738 13.25732-7.78515 18.0166-6.23242a.34434.34434 0 01-.21485.6543c-4.46191-1.46192-17.32177 6.09473-17.45117 6.17187A.34546.34546 0 01333.09641 258.26645z"></path><path d="M409.13645,207.63046l.00683-.00006.02466.00458,30.00049,11.1181.02636.01123a49.97992,49.97992,0,0,1,8.471,5.0318,32.08744,32.08744,0,0,1,6.99268,6.98926,16.25482,16.25482,0,0,1,2.344,4.44091,34.20342,34.20342,0,0,1,1.23487,4.80341,18.89241,18.89241,0,0,1-.66895,9.932,13.6868,13.6868,0,0,1-2.689,4.29986,15.43336,15.43336,0,0,1-4.02686,3.05927,18.89212,18.89212,0,0,1-4.72632,1.7362,20.77721,20.77721,0,0,1-2.48047.368l-2.43457.2655c-6.49194.69433-12.98193,1.39978-19.47973,2.03216-12.99488,1.27179-25.99317,2.51777-39.02,3.47638-3.25635.24256-6.51441.47028-9.77661.65662-3.269.16363-6.51246.39166-9.83545.24506a8.37054,8.37054,0,0,1-4.64795-1.89081,17.46867,17.46867,0,0,1-3.38452-3.64093,37.53352,37.53352,0,0,1-4.48633-8.76422.25961.25961,0,0,1,.26538-.34827l.00879.00085a16.0804,16.0804,0,0,0,4.20117-.013c.655-.12609,1.34936-.38873,1.53906-.9447a2.62606,2.62606,0,0,0-.35644-1.86346,22.23863,22.23863,0,0,0-2.39331-3.48957c-.88672-1.11535-1.80542-2.21026-2.71607-3.31341-.91113-1.10278-1.81641-2.213-2.69263-3.34729a13.51324,13.51324,0,0,0-2.97583-2.972,4.33422,4.33422,0,0,0-3.85376-.78845,5.61047,5.61047,0,0,0-2.937,2.72949l-.00732.01337a.23828.23828,0,0,1-.437-.04266,14.29667,14.29667,0,0,1-.69776-4.29328,6.83639,6.83639,0,0,1,.3479-2.1886,3.7967,3.7967,0,0,1,1.31934-1.84057l-.03491.03033a6.311,6.311,0,0,1,1.91357-1.15082,20.814,20.814,0,0,1,2.03955-.72839c1.37525-.42059,2.76685-.76172,4.16358-1.07135,2.79467-.61346,5.60962-1.10364,8.42968-1.55084,5.64161-.88556,11.30664-1.58588,16.97681-2.2226,11.34229-1.27124,22.70606-2.28228,34.09033-3.11987l-.49463.47052c.71753-4.53394,1.64771-8.90985,2.52686-13.352l2.73584-13.26611,5.4978-26.52716.2544.69366a6.54487,6.54487,0,0,0-1.97266-.71136c-.7522-.172-1.52417-.31409-2.30542-.428-1.56006-.23651-3.14453-.39765-4.73-.53913-3.17407-.279-6.36646-.44366-9.55933-.58831-6.38818-.28351-12.7893-.4151-19.19091-.4906-12.80347-.14838-25.61695-.03608-38.4209.14129l.46313-.20331a5.85714,5.85714,0,0,0-.9751,1.78968c-.262.68975-.48217,1.41076-.67993,2.14087-.39331,1.46264-.70117,2.96252-.979,4.46807-.54834,3.015-.96558,6.06421-1.33374,9.11908-.728,6.11261-1.25684,12.25574-1.71338,18.4032q-.6764,9.22514-1.13452,18.46662c-.34033,6.15185-.56592,12.32232-.79688,18.48126l-.00024.00641a.30063.30063,0,0,1-.30811.28918l-26.25146-.682a.06886.06886,0,0,1,.00244-.13769l26.25928.21338-.30811.29541c.15674-6.17395.33447-12.33667.613-18.50861q.37317-9.241.959-18.49054c.39868-6.16137.86914-12.32031,1.542-18.46759.34057-3.0733.73046-6.1438,1.25683-9.20453.26758-1.53.56519-3.0578.9585-4.57855.19824-.76025.42065-1.51868.69922-2.27392a6.91793,6.91793,0,0,1,1.23608-2.244.60374.60374,0,0,1,.43457-.20276l.02881-.00073c6.41162-.16565,12.81958-.22443,19.23047-.27173q9.6156-.061,19.2334.02124c6.41211.06525,12.82519.18652,19.24.46075,3.20752.14368,6.41455.33338,9.6228.62561,1.60449.15,3.2085.31952,4.81518.56983.80347.12085,1.60767.27124,2.416.45984a7.3419,7.3419,0,0,1,2.49756.9732.62652.62652,0,0,1,.26416.64954l-.00952.04449L412.789,193.40072l-2.81738,13.24573c-.91553,4.40521-1.89819,8.859-2.63379,13.23615l-.00464.02844a.53217.53217,0,0,1-.49.44232c-11.37134.7323-22.74121,1.63861-34.07861,2.80518-5.667.59948-11.32837,1.26257-16.96,2.10955-2.81445.4278-5.62305.8985-8.40259,1.49-1.38867.2984-2.77051.62812-4.125,1.033a20.24685,20.24685,0,0,0-1.99072.696,5.8923,5.8923,0,0,0-1.74341,1.01819l-.00977.00909-.02563.02148a3.26714,3.26714,0,0,0-1.1416,1.58313,6.33184,6.33184,0,0,0-.33057,2.02045,13.8396,13.8396,0,0,0,.64649,4.13239l-.44434-.0293a6.05822,6.05822,0,0,1,3.22729-2.9483,4.7732,4.7732,0,0,1,4.23658.86755,14.75959,14.75959,0,0,1,3.06982,3.06427c.8772,1.12427,1.78467,2.22626,2.7,3.3233.9148,1.0976,1.8396,2.18891,2.7378,3.30744a22.6117,22.6117,0,0,1,2.46435,3.56335,3.04426,3.04426,0,0,1,.38794,2.24823,1.70558,1.70558,0,0,1-.823.90643,3.94268,3.94268,0,0,1-1.08349.36609,16.49928,16.49928,0,0,1-4.3501.041l.27441-.34729a35.36167,35.36167,0,0,0,4.4812,8.57629,16.84895,16.84895,0,0,0,3.29786,3.468,7.66289,7.66289,0,0,0,4.29589,1.69574c3.20142.10278,6.48389-.16016,9.72754-.36389,3.252-.22388,6.50318-.48932,9.75293-.76959q19.49634-1.72871,38.97486-3.73658l19.47851-1.97644c1.61182-.19616,3.2815-.2716,4.79419-.59118a17.76352,17.76352,0,0,0,4.44409-1.60913,13.025,13.025,0,0,0,6.23682-6.75806,17.85752,17.85752,0,0,0,.655-9.36743,34.60227,34.60227,0,0,0-1.15552-4.68164,15.3305,15.3305,0,0,0-2.16553-4.20172,31.23041,31.23041,0,0,0-6.72656-6.87012,49.21771,49.21771,0,0,0-8.28027-5.044l.02588.01105-29.79712-11.652.02441.00446-.00683-.00006a.06888.06888,0,0,1,0-.13776Z"></path><path d="M341.10089 164.032c-5.04176 5.70295-7.43863 73.31837-7.43863 73.31837H338.456s-2.00423-5.937.89542-8.03087c5.26894-5.42751 67.457-9.498 67.457-9.498.13772-1.19154 1.06761-5.93013 2.33482-12.12206 3.20972-15.76579 8.57518-40.9398 8.57518-40.9398C412.26353 162.54431 341.10089 164.032 341.10089 164.032zm35.20928 30.99416c-6.02664 0-10.90984-1.44629-10.90984-3.22335s4.8832-3.22334 10.90984-3.22334 10.91 1.44629 10.91 3.22334S382.33681 195.02613 376.31017 195.02613zM271.60935 237.9208a90.53018 90.53018 0 00-1.25074 14.36933 64.6901 64.6901 0 001.36988 14.29254c1.05371 4.63556 2.8811 9.21551 6.094 12.68762a22.12646 22.12646 0 005.63281 4.23l1.56177.86908c.52393.28424 1.07422.52539 1.61011.79022 1.075.52466 2.15356 1.04248 3.26513 1.49707 4.40088 1.90705 8.92432 3.554 13.48975 5.06885 4.562 1.52747 9.168 2.9289 13.78906 4.28156 9.23706 2.73895 18.563 5.12506 27.915 7.51141a18.57838 18.57838 0 0111.40869 8.83215 19.48073 19.48073 0 011.4856 3.37329 24.83122 24.83122 0 01.79956 3.57673l1.186 7.13458c1.63232 9.504 3.21167 19.01715 4.9082 28.50989l10.1914 56.95453-.47778-.41266c7.11426.10284 14.24707.00872 21.3479-.37152 3.55-.18915 7.09619-.45618 10.605-.918a51.16843 51.16843 0 005.19141-.93952 20.1671 20.1671 0 002.47192-.75262 5.95109 5.95109 0 002.01978-1.18988l-.17456.47906c-.50684-12.19635-1.11377-24.39483-1.74561-36.58819-.64014-12.194-1.43091-24.37836-2.23-36.56134-.83569-12.18-1.7937-24.35383-3.11133-36.48835-.66015-6.06659-1.43457-12.12085-2.406-18.1416-.49463-3.008-1.04273-6.01019-1.77954-8.9657a37.80252 37.80252 0 00-1.33081-4.36169 13.21891 13.21891 0 00-.97266-2.04926 2.81972 2.81972 0 00-1.61108-1.442l-.00562-.0011a.0688.0688 0 01.02661-.135 2.957 2.957 0 011.75025 1.47748 13.39019 13.39019 0 011.03613 2.06036 38.08333 38.08333 0 011.43994 4.36383c.80762 2.95429 1.4248 5.95319 1.989 8.9585 1.11377 6.01526 1.91431 12.07885 2.66333 18.14386 1.46607 12.13592 2.57178 24.30877 3.55494 36.48852 1.00366 12.17908 1.72412 24.37757 2.415 36.57575q1.03564 18.29892 1.67188 36.61688l.00073.02161a.62914.62914 0 01-.17554.45782 7.06092 7.06092 0 01-2.53808 1.53021 21.41454 21.41454 0 01-2.645.79224 52.41943 52.41943 0 01-5.33594.93762c-3.5664.45-7.13965.69916-10.7124.87067-7.14819.3042-14.28906.31268-21.436.12793a.49808.49808 0 01-.478-.41284L364.425 355.02334c-1.61182-9.50751-3.34058-18.99463-5.01685-28.491l-1.29492-7.11567a24.04379 24.04379 0 00-.82763-3.46252 18.70376 18.70376 0 00-1.47388-3.21259 17.69584 17.69584 0 00-10.97608-8.25268c-9.3789-2.20056-18.73706-4.61908-28.00878-7.30359-4.64112-1.33026-9.24317-2.80127-13.81983-4.35022-4.57642-1.54828-9.115-3.22974-13.55151-5.18262-1.11817-.465-2.21-.99664-3.29859-1.5357-.543-.27234-1.09692-.51917-1.63086-.81256l-1.593-.89826a22.31535 22.31535 0 01-5.82447-4.48566c-3.32422-3.70434-5.11474-8.44659-6.12207-13.17443a60.91683 60.91683 0 01-1.11279-14.46473 90.8382 90.8382 0 011.60059-14.38757.06892.06892 0 01.08081-.05444A.07143.07143 0 01271.60935 237.9208zM385.73243 420.78763s-5.95088-.61989-5.95088 2.23158.49591 23.67953 2.97544 24.29942 75.12984 25.66316 94.4702 5.331c0 0 13.38947-7.4386-11.90176-16.117s-41.16024-17.35673-41.16024-17.35673-24.05147.74386-24.54738 3.22339 3.2234 11.40585 3.2234 11.40585S386.9722 437.52447 385.73243 420.78763z"></path><path d="M385.73264 421.13266a.37209.37209 0 01-.08545-.01075.34536.34536 0 01-.24805-.41992 11.18237 11.18237 0 00-1.43652-8.44433.34433.34433 0 11.56445-.39454 11.677 11.677 0 011.53906 9.01075A.34432.34432 0 01385.73264 421.13266zM421.18967 419.52035l-.01172-.001c-7.49561-.25-14.82373-8.06933-15.13184-8.40136a.34447.34447 0 11.50489-.46875c.07373.08008 7.44336 7.9414 14.65039 8.18261a.34434.34434 0 01-.01172.68848z"></path><path fill="#fff" d="M248.31244 234.26137c-.05029-.01-.10009-.01-.1499-.02l-.06006-.06A1.8 1.8 0 01248.31244 234.26137zM270.09223 257.87136v.06c.03027-.18.06006-.35.09033-.53C270.15229 257.56136 270.1225 257.71138 270.09223 257.87136zM407.6225 284.11135v.02c-.04.01-.07031.02-.11035.03C407.55219 284.14138 407.58246 284.13137 407.6225 284.11135z"></path><path d="M238.30344 291.47616l1.17749 20.70954 1.07422 20.71337c.36645 6.90412.85156 13.8039.97119 20.71711.053 3.45691.10571 6.91375.06933 10.374l-.05737 5.19031c-.0603 1.73169-.082 3.46185-.17676 5.19476a.10378.10378 0 01-.20654.00763c-.22217-1.72119-.37109-3.44513-.55884-5.1676l-.4397-5.172c-.29125-3.44812-.49316-6.89948-.69506-10.35089-.39014-6.90326-.4148-13.82-.55811-20.73236l-.45483-20.73621-.35157-20.74a.10337.10337 0 01.20655-.00763zM294.58884 330.65579l.57861 21.09.47534 21.09082c.16675 7.03021.45215 14.05951.37183 21.09167-.04688 3.51611-.094 7.03223-.23023 10.54907l-.20751 5.27527c-.11036 1.75873-.18189 3.51721-.32667 5.27619a.10382.10382 0 01-.20678.00164c-.17212-1.75653-.27149-3.51367-.40943-5.27044l-.29-5.27137c-.1914-3.51428-.29345-7.02923-.3955-10.54419-.19043-7.03-.01514-14.06292.04126-21.09484l.14477-21.09571.2478-21.09649a.1033.1033 0 01.20655-.00165z"></path><ellipse cx="241.258" cy="372.843" rx="8.761" ry="1.653"></ellipse><ellipse cx="294.816" cy="413.714" rx="8.761" ry="1.653"></ellipse><path d="M353.081 317.01535l.7705 9.67566.667 9.67938c.209 3.227.59643 6.44739.5642 9.68323a73.94581 73.94581 0 01-.57177 9.72509.10493.10493 0 01-.20655.00763 73.86586 73.86586 0 01-1.28662-9.65655c-.27075-3.22467-.12158-6.46485-.15112-9.69843l-.04761-9.70227.05542-9.70611a.10344.10344 0 01.20655-.00763zM430.05539 294.85763l.57666 20.84393.47339 20.84473c.166 6.94818.45093 13.89539.36987 20.84552-.04712 3.4751-.09448 6.95026-.2312 10.426l-.20776 5.21374c-.1106 1.73822-.18238 3.4762-.32739 5.21466a.1037.1037 0 01-.20655.00165c-.17212-1.736-.27124-3.47259-.40893-5.20892l-.2898-5.20984c-.19092-3.47321-.29272-6.94721-.39453-10.42114-.1897-6.94794-.01392-13.89881.04321-20.84876l.14673-20.84961.24976-20.85034a.10329.10329 0 01.20654-.00165z"></path><ellipse cx="354.408" cy="354.247" rx="8.761" ry="1.653"></ellipse><ellipse cx="430.275" cy="376.931" rx="8.761" ry="1.653"></ellipse><path d="M338.45383,237.6932h-4.79151a.34473.34473,0,0,1,0-.68945h4.79151a.34473.34473,0,0,1,0,.68945Z"></path></svg>