<svg xmlns="http://www.w3.org/2000/svg" xmlns:xlink="http://www.w3.org/1999/xlink" width="500" zoomAndPan="magnify" viewBox="0 0 375 374.999991" height="500" preserveAspectRatio="xMidYMid meet" version="1.0"><defs><g/><clipPath id="ac3f5a86b3"><path d="M 88.671875 285.039062 L 286.671875 285.039062 L 286.671875 332.289062 L 88.671875 332.289062 Z M 88.671875 285.039062 " clip-rule="nonzero"/></clipPath></defs><g fill="#f8f7f3" fill-opacity="1"><g transform="translate(88.661502, 255.649482)"><g><path d="M 10.242188 0 L 48.898438 0 L 48.898438 -7.9375 C 39.679688 -7.9375 36.097656 -13.3125 36.097656 -30.722656 L 36.097656 -139.78125 L 129.03125 -17.152344 C 140.039062 -2.558594 149 0 174.597656 0 L 174.597656 -138.246094 C 174.597656 -155.65625 178.183594 -161.03125 187.398438 -161.03125 L 187.398438 -168.96875 L 148.742188 -168.96875 L 148.742188 -161.03125 C 157.957031 -161.03125 161.542969 -155.65625 161.542969 -138.246094 L 161.542969 -29.183594 L 68.609375 -151.8125 C 58.371094 -165.125 49.921875 -168.453125 27.394531 -168.96875 L 10.242188 -168.96875 L 10.242188 -161.03125 C 19.457031 -161.03125 23.039062 -155.65625 23.039062 -138.246094 L 23.039062 -30.722656 C 23.039062 -13.3125 19.457031 -7.9375 10.242188 -7.9375 Z M 10.242188 0 "/></g></g></g><g clip-path="url(#ac3f5a86b3)"><path fill="#f8f7f3" d="M 88.671875 331.632812 C 88.625 331.238281 88.625 330.84375 88.671875 330.445312 C 93.5 319.632812 103.617188 300.5 113.632812 293.730469 C 122.371094 287.832031 132.164062 285.480469 142.578125 285.203125 C 156.703125 284.84375 180.800781 289.375 194.398438 292.574219 C 207.550781 295.675781 220.664062 298.894531 233.90625 301.550781 C 243.304688 303.4375 260.980469 303.738281 270.460938 301.460938 C 275.71875 300.222656 280.507812 297.992188 284.828125 294.769531 C 285.320312 294.398438 285.851562 294.078125 286.640625 293.550781 C 286.640625 294.15625 286.71875 294.414062 286.640625 294.597656 C 280.46875 308.34375 262.496094 327.339844 247.339844 330.570312 C 237.925781 332.511719 228.488281 332.632812 219.027344 330.933594 C 204.292969 328.453125 179.164062 324.027344 164.527344 321.167969 C 153.289062 318.972656 142.023438 316.941406 130.53125 316.988281 C 119.609375 317.066406 105.3125 319.019531 96.136719 325.515625 C 94.132812 326.972656 92.34375 328.695312 90.457031 330.269531 C 89.996094 330.648438 89.511719 330.996094 88.671875 331.632812 Z M 88.671875 331.632812 " fill-opacity="1" fill-rule="nonzero"/></g></svg>